<mxfile host="app.diagrams.net" agent="Mozilla/5.0 (Windows NT 10.0; Win64; x64) AppleWebKit/537.36 (KHTML, like Gecko) Chrome/136.0.0.0 Safari/537.36" version="27.0.3">
  <diagram name="Page-1" id="daDxEWahy6-QlGQ29cJm">
    <mxGraphModel dx="1042" dy="570" grid="1" gridSize="10" guides="1" tooltips="1" connect="1" arrows="1" fold="1" page="1" pageScale="1" pageWidth="850" pageHeight="1100" math="0" shadow="0">
      <root>
        <mxCell id="0" />
        <mxCell id="1" parent="0" />
        <mxCell id="HuhQ-BYiVnJZDyxTYF4y-1" value="&#xa;  &#xa;    &#xa;      &#xa;        &#xa;        &#xa;&#xa;        &#xa;        &#xa;          &#xa;        &#xa;        &#xa;        &#xa;          &#xa;        &#xa;        &#xa;        &#xa;          &#xa;        &#xa;&#xa;        &#xa;          &#xa;        &#xa;        &#xa;        &#xa;          &#xa;        &#xa;        &#xa;        &#xa;          &#xa;        &#xa;        &#xa;        &#xa;          &#xa;        &#xa;        &#xa;        &#xa;          &#xa;        &#xa;        &#xa;        &#xa;          &#xa;        &#xa;        &#xa;        &#xa;          &#xa;        &#xa;        &#xa;        &#xa;          &#xa;        &#xa;        &#xa;        &#xa;          &#xa;        &#xa;        &#xa;        &#xa;          &#xa;        &#xa;        &#xa;        &#xa;          &#xa;        &#xa;        &#xa;        &#xa;          &#xa;        &#xa;&#xa;        &#xa;        &#xa;          &#xa;        &#xa;        &#xa;        &#xa;          &#xa;        " style="text;whiteSpace=wrap;html=1;" parent="1" vertex="1">
          <mxGeometry width="30" height="1100" as="geometry" />
        </mxCell>
        <mxCell id="HuhQ-BYiVnJZDyxTYF4y-2" value="&#xa;  &#xa;    &#xa;      &#xa;        &#xa;        &#xa;&#xa;        &#xa;        &#xa;          &#xa;        &#xa;        &#xa;        &#xa;          &#xa;        &#xa;        &#xa;        &#xa;          &#xa;        &#xa;&#xa;        &#xa;          &#xa;        &#xa;        &#xa;        &#xa;          &#xa;        &#xa;        &#xa;        &#xa;          &#xa;        &#xa;        &#xa;        &#xa;          &#xa;        &#xa;        &#xa;        &#xa;          &#xa;        &#xa;        &#xa;        &#xa;          &#xa;        &#xa;        &#xa;        &#xa;          &#xa;        &#xa;        &#xa;        &#xa;          &#xa;        &#xa;        &#xa;        &#xa;          &#xa;        &#xa;        &#xa;        &#xa;          &#xa;        &#xa;        &#xa;        &#xa;          &#xa;        &#xa;        &#xa;        &#xa;          &#xa;        &#xa;&#xa;        &#xa;        &#xa;          &#xa;        &#xa;        &#xa;        &#xa;          &#xa;        " style="text;whiteSpace=wrap;html=1;" parent="1" vertex="1">
          <mxGeometry width="30" height="1100" as="geometry" />
        </mxCell>
        <mxCell id="dPQcXwXLmtW2vjUBhtSD-1" value="Customers" style="shape=table;startSize=30;container=1;collapsible=1;childLayout=tableLayout;fixedRows=1;rowLines=0;fontStyle=1;align=center;resizeLast=1;html=1;fillColor=#d5e8d4;strokeColor=#82b366;" vertex="1" parent="1">
          <mxGeometry x="120" y="520" width="170" height="150" as="geometry" />
        </mxCell>
        <mxCell id="dPQcXwXLmtW2vjUBhtSD-2" value="" style="shape=tableRow;horizontal=0;startSize=0;swimlaneHead=0;swimlaneBody=0;fillColor=none;collapsible=0;dropTarget=0;points=[[0,0.5],[1,0.5]];portConstraint=eastwest;top=0;left=0;right=0;bottom=1;" vertex="1" parent="dPQcXwXLmtW2vjUBhtSD-1">
          <mxGeometry y="30" width="170" height="30" as="geometry" />
        </mxCell>
        <mxCell id="dPQcXwXLmtW2vjUBhtSD-3" value="PK" style="shape=partialRectangle;connectable=0;fillColor=none;top=0;left=0;bottom=0;right=0;fontStyle=1;overflow=hidden;whiteSpace=wrap;html=1;" vertex="1" parent="dPQcXwXLmtW2vjUBhtSD-2">
          <mxGeometry width="30" height="30" as="geometry">
            <mxRectangle width="30" height="30" as="alternateBounds" />
          </mxGeometry>
        </mxCell>
        <mxCell id="dPQcXwXLmtW2vjUBhtSD-4" value="&lt;span style=&quot;text-align: center; text-wrap-mode: nowrap;&quot;&gt;Customer_ID&lt;/span&gt;" style="shape=partialRectangle;connectable=0;fillColor=none;top=0;left=0;bottom=0;right=0;align=left;spacingLeft=6;fontStyle=5;overflow=hidden;whiteSpace=wrap;html=1;" vertex="1" parent="dPQcXwXLmtW2vjUBhtSD-2">
          <mxGeometry x="30" width="140" height="30" as="geometry">
            <mxRectangle width="140" height="30" as="alternateBounds" />
          </mxGeometry>
        </mxCell>
        <mxCell id="dPQcXwXLmtW2vjUBhtSD-5" value="" style="shape=tableRow;horizontal=0;startSize=0;swimlaneHead=0;swimlaneBody=0;fillColor=none;collapsible=0;dropTarget=0;points=[[0,0.5],[1,0.5]];portConstraint=eastwest;top=0;left=0;right=0;bottom=0;" vertex="1" parent="dPQcXwXLmtW2vjUBhtSD-1">
          <mxGeometry y="60" width="170" height="60" as="geometry" />
        </mxCell>
        <mxCell id="dPQcXwXLmtW2vjUBhtSD-6" value="" style="shape=partialRectangle;connectable=0;fillColor=none;top=0;left=0;bottom=0;right=0;editable=1;overflow=hidden;whiteSpace=wrap;html=1;" vertex="1" parent="dPQcXwXLmtW2vjUBhtSD-5">
          <mxGeometry width="30" height="60" as="geometry">
            <mxRectangle width="30" height="60" as="alternateBounds" />
          </mxGeometry>
        </mxCell>
        <mxCell id="dPQcXwXLmtW2vjUBhtSD-7" value="Name" style="shape=partialRectangle;connectable=0;fillColor=none;top=0;left=0;bottom=0;right=0;align=left;spacingLeft=6;overflow=hidden;whiteSpace=wrap;html=1;" vertex="1" parent="dPQcXwXLmtW2vjUBhtSD-5">
          <mxGeometry x="30" width="140" height="60" as="geometry">
            <mxRectangle width="140" height="60" as="alternateBounds" />
          </mxGeometry>
        </mxCell>
        <mxCell id="dPQcXwXLmtW2vjUBhtSD-8" value="" style="shape=tableRow;horizontal=0;startSize=0;swimlaneHead=0;swimlaneBody=0;fillColor=none;collapsible=0;dropTarget=0;points=[[0,0.5],[1,0.5]];portConstraint=eastwest;top=0;left=0;right=0;bottom=0;" vertex="1" parent="dPQcXwXLmtW2vjUBhtSD-1">
          <mxGeometry y="120" width="170" height="30" as="geometry" />
        </mxCell>
        <mxCell id="dPQcXwXLmtW2vjUBhtSD-9" value="" style="shape=partialRectangle;connectable=0;fillColor=none;top=0;left=0;bottom=0;right=0;editable=1;overflow=hidden;whiteSpace=wrap;html=1;" vertex="1" parent="dPQcXwXLmtW2vjUBhtSD-8">
          <mxGeometry width="30" height="30" as="geometry">
            <mxRectangle width="30" height="30" as="alternateBounds" />
          </mxGeometry>
        </mxCell>
        <mxCell id="dPQcXwXLmtW2vjUBhtSD-10" value="Contact_Info" style="shape=partialRectangle;connectable=0;fillColor=none;top=0;left=0;bottom=0;right=0;align=left;spacingLeft=6;overflow=hidden;whiteSpace=wrap;html=1;" vertex="1" parent="dPQcXwXLmtW2vjUBhtSD-8">
          <mxGeometry x="30" width="140" height="30" as="geometry">
            <mxRectangle width="140" height="30" as="alternateBounds" />
          </mxGeometry>
        </mxCell>
        <mxCell id="dPQcXwXLmtW2vjUBhtSD-14" value="Orders" style="shape=table;startSize=30;container=1;collapsible=1;childLayout=tableLayout;fixedRows=1;rowLines=0;fontStyle=1;align=center;resizeLast=1;html=1;fillColor=#fff2cc;strokeColor=#d6b656;" vertex="1" parent="1">
          <mxGeometry x="490" y="520" width="180" height="150" as="geometry" />
        </mxCell>
        <mxCell id="dPQcXwXLmtW2vjUBhtSD-15" value="" style="shape=tableRow;horizontal=0;startSize=0;swimlaneHead=0;swimlaneBody=0;fillColor=none;collapsible=0;dropTarget=0;points=[[0,0.5],[1,0.5]];portConstraint=eastwest;top=0;left=0;right=0;bottom=1;" vertex="1" parent="dPQcXwXLmtW2vjUBhtSD-14">
          <mxGeometry y="30" width="180" height="30" as="geometry" />
        </mxCell>
        <mxCell id="dPQcXwXLmtW2vjUBhtSD-16" value="PK" style="shape=partialRectangle;connectable=0;fillColor=none;top=0;left=0;bottom=0;right=0;fontStyle=1;overflow=hidden;whiteSpace=wrap;html=1;" vertex="1" parent="dPQcXwXLmtW2vjUBhtSD-15">
          <mxGeometry width="30" height="30" as="geometry">
            <mxRectangle width="30" height="30" as="alternateBounds" />
          </mxGeometry>
        </mxCell>
        <mxCell id="dPQcXwXLmtW2vjUBhtSD-17" value="Order_ID" style="shape=partialRectangle;connectable=0;fillColor=none;top=0;left=0;bottom=0;right=0;align=left;spacingLeft=6;fontStyle=5;overflow=hidden;whiteSpace=wrap;html=1;" vertex="1" parent="dPQcXwXLmtW2vjUBhtSD-15">
          <mxGeometry x="30" width="150" height="30" as="geometry">
            <mxRectangle width="150" height="30" as="alternateBounds" />
          </mxGeometry>
        </mxCell>
        <mxCell id="dPQcXwXLmtW2vjUBhtSD-18" value="" style="shape=tableRow;horizontal=0;startSize=0;swimlaneHead=0;swimlaneBody=0;fillColor=none;collapsible=0;dropTarget=0;points=[[0,0.5],[1,0.5]];portConstraint=eastwest;top=0;left=0;right=0;bottom=0;" vertex="1" parent="dPQcXwXLmtW2vjUBhtSD-14">
          <mxGeometry y="60" width="180" height="30" as="geometry" />
        </mxCell>
        <mxCell id="dPQcXwXLmtW2vjUBhtSD-19" value="" style="shape=partialRectangle;connectable=0;fillColor=none;top=0;left=0;bottom=0;right=0;editable=1;overflow=hidden;whiteSpace=wrap;html=1;" vertex="1" parent="dPQcXwXLmtW2vjUBhtSD-18">
          <mxGeometry width="30" height="30" as="geometry">
            <mxRectangle width="30" height="30" as="alternateBounds" />
          </mxGeometry>
        </mxCell>
        <mxCell id="dPQcXwXLmtW2vjUBhtSD-20" value="Customer_ID" style="shape=partialRectangle;connectable=0;fillColor=none;top=0;left=0;bottom=0;right=0;align=left;spacingLeft=6;overflow=hidden;whiteSpace=wrap;html=1;" vertex="1" parent="dPQcXwXLmtW2vjUBhtSD-18">
          <mxGeometry x="30" width="150" height="30" as="geometry">
            <mxRectangle width="150" height="30" as="alternateBounds" />
          </mxGeometry>
        </mxCell>
        <mxCell id="dPQcXwXLmtW2vjUBhtSD-21" value="" style="shape=tableRow;horizontal=0;startSize=0;swimlaneHead=0;swimlaneBody=0;fillColor=none;collapsible=0;dropTarget=0;points=[[0,0.5],[1,0.5]];portConstraint=eastwest;top=0;left=0;right=0;bottom=0;" vertex="1" parent="dPQcXwXLmtW2vjUBhtSD-14">
          <mxGeometry y="90" width="180" height="30" as="geometry" />
        </mxCell>
        <mxCell id="dPQcXwXLmtW2vjUBhtSD-22" value="" style="shape=partialRectangle;connectable=0;fillColor=none;top=0;left=0;bottom=0;right=0;editable=1;overflow=hidden;whiteSpace=wrap;html=1;" vertex="1" parent="dPQcXwXLmtW2vjUBhtSD-21">
          <mxGeometry width="30" height="30" as="geometry">
            <mxRectangle width="30" height="30" as="alternateBounds" />
          </mxGeometry>
        </mxCell>
        <mxCell id="dPQcXwXLmtW2vjUBhtSD-23" value="Order_Date" style="shape=partialRectangle;connectable=0;fillColor=none;top=0;left=0;bottom=0;right=0;align=left;spacingLeft=6;overflow=hidden;whiteSpace=wrap;html=1;" vertex="1" parent="dPQcXwXLmtW2vjUBhtSD-21">
          <mxGeometry x="30" width="150" height="30" as="geometry">
            <mxRectangle width="150" height="30" as="alternateBounds" />
          </mxGeometry>
        </mxCell>
        <mxCell id="dPQcXwXLmtW2vjUBhtSD-24" value="" style="shape=tableRow;horizontal=0;startSize=0;swimlaneHead=0;swimlaneBody=0;fillColor=none;collapsible=0;dropTarget=0;points=[[0,0.5],[1,0.5]];portConstraint=eastwest;top=0;left=0;right=0;bottom=0;" vertex="1" parent="dPQcXwXLmtW2vjUBhtSD-14">
          <mxGeometry y="120" width="180" height="30" as="geometry" />
        </mxCell>
        <mxCell id="dPQcXwXLmtW2vjUBhtSD-25" value="" style="shape=partialRectangle;connectable=0;fillColor=none;top=0;left=0;bottom=0;right=0;editable=1;overflow=hidden;whiteSpace=wrap;html=1;" vertex="1" parent="dPQcXwXLmtW2vjUBhtSD-24">
          <mxGeometry width="30" height="30" as="geometry">
            <mxRectangle width="30" height="30" as="alternateBounds" />
          </mxGeometry>
        </mxCell>
        <mxCell id="dPQcXwXLmtW2vjUBhtSD-26" value="Total_Amount" style="shape=partialRectangle;connectable=0;fillColor=none;top=0;left=0;bottom=0;right=0;align=left;spacingLeft=6;overflow=hidden;whiteSpace=wrap;html=1;" vertex="1" parent="dPQcXwXLmtW2vjUBhtSD-24">
          <mxGeometry x="30" width="150" height="30" as="geometry">
            <mxRectangle width="150" height="30" as="alternateBounds" />
          </mxGeometry>
        </mxCell>
        <mxCell id="dPQcXwXLmtW2vjUBhtSD-28" value="Order_Details" style="shape=table;startSize=30;container=1;collapsible=1;childLayout=tableLayout;fixedRows=1;rowLines=0;fontStyle=1;align=center;resizeLast=1;html=1;fillColor=#ffe6cc;strokeColor=#d79b00;" vertex="1" parent="1">
          <mxGeometry x="122.5" y="760" width="175" height="240" as="geometry" />
        </mxCell>
        <mxCell id="dPQcXwXLmtW2vjUBhtSD-29" value="" style="shape=tableRow;horizontal=0;startSize=0;swimlaneHead=0;swimlaneBody=0;fillColor=none;collapsible=0;dropTarget=0;points=[[0,0.5],[1,0.5]];portConstraint=eastwest;top=0;left=0;right=0;bottom=1;" vertex="1" parent="dPQcXwXLmtW2vjUBhtSD-28">
          <mxGeometry y="30" width="175" height="30" as="geometry" />
        </mxCell>
        <mxCell id="dPQcXwXLmtW2vjUBhtSD-30" value="PK" style="shape=partialRectangle;connectable=0;fillColor=none;top=0;left=0;bottom=0;right=0;fontStyle=1;overflow=hidden;whiteSpace=wrap;html=1;" vertex="1" parent="dPQcXwXLmtW2vjUBhtSD-29">
          <mxGeometry width="30" height="30" as="geometry">
            <mxRectangle width="30" height="30" as="alternateBounds" />
          </mxGeometry>
        </mxCell>
        <mxCell id="dPQcXwXLmtW2vjUBhtSD-31" value="Order_Details_ID" style="shape=partialRectangle;connectable=0;fillColor=none;top=0;left=0;bottom=0;right=0;align=left;spacingLeft=6;fontStyle=5;overflow=hidden;whiteSpace=wrap;html=1;" vertex="1" parent="dPQcXwXLmtW2vjUBhtSD-29">
          <mxGeometry x="30" width="145" height="30" as="geometry">
            <mxRectangle width="145" height="30" as="alternateBounds" />
          </mxGeometry>
        </mxCell>
        <mxCell id="dPQcXwXLmtW2vjUBhtSD-32" value="" style="shape=tableRow;horizontal=0;startSize=0;swimlaneHead=0;swimlaneBody=0;fillColor=none;collapsible=0;dropTarget=0;points=[[0,0.5],[1,0.5]];portConstraint=eastwest;top=0;left=0;right=0;bottom=0;" vertex="1" parent="dPQcXwXLmtW2vjUBhtSD-28">
          <mxGeometry y="60" width="175" height="40" as="geometry" />
        </mxCell>
        <mxCell id="dPQcXwXLmtW2vjUBhtSD-33" value="" style="shape=partialRectangle;connectable=0;fillColor=none;top=0;left=0;bottom=0;right=0;editable=1;overflow=hidden;whiteSpace=wrap;html=1;" vertex="1" parent="dPQcXwXLmtW2vjUBhtSD-32">
          <mxGeometry width="30" height="40" as="geometry">
            <mxRectangle width="30" height="40" as="alternateBounds" />
          </mxGeometry>
        </mxCell>
        <mxCell id="dPQcXwXLmtW2vjUBhtSD-34" value="Order_ID" style="shape=partialRectangle;connectable=0;fillColor=none;top=0;left=0;bottom=0;right=0;align=left;spacingLeft=6;overflow=hidden;whiteSpace=wrap;html=1;" vertex="1" parent="dPQcXwXLmtW2vjUBhtSD-32">
          <mxGeometry x="30" width="145" height="40" as="geometry">
            <mxRectangle width="145" height="40" as="alternateBounds" />
          </mxGeometry>
        </mxCell>
        <mxCell id="dPQcXwXLmtW2vjUBhtSD-35" value="" style="shape=tableRow;horizontal=0;startSize=0;swimlaneHead=0;swimlaneBody=0;fillColor=none;collapsible=0;dropTarget=0;points=[[0,0.5],[1,0.5]];portConstraint=eastwest;top=0;left=0;right=0;bottom=0;" vertex="1" parent="dPQcXwXLmtW2vjUBhtSD-28">
          <mxGeometry y="100" width="175" height="40" as="geometry" />
        </mxCell>
        <mxCell id="dPQcXwXLmtW2vjUBhtSD-36" value="" style="shape=partialRectangle;connectable=0;fillColor=none;top=0;left=0;bottom=0;right=0;editable=1;overflow=hidden;whiteSpace=wrap;html=1;" vertex="1" parent="dPQcXwXLmtW2vjUBhtSD-35">
          <mxGeometry width="30" height="40" as="geometry">
            <mxRectangle width="30" height="40" as="alternateBounds" />
          </mxGeometry>
        </mxCell>
        <mxCell id="dPQcXwXLmtW2vjUBhtSD-37" value="Item_ID" style="shape=partialRectangle;connectable=0;fillColor=none;top=0;left=0;bottom=0;right=0;align=left;spacingLeft=6;overflow=hidden;whiteSpace=wrap;html=1;" vertex="1" parent="dPQcXwXLmtW2vjUBhtSD-35">
          <mxGeometry x="30" width="145" height="40" as="geometry">
            <mxRectangle width="145" height="40" as="alternateBounds" />
          </mxGeometry>
        </mxCell>
        <mxCell id="dPQcXwXLmtW2vjUBhtSD-38" value="" style="shape=tableRow;horizontal=0;startSize=0;swimlaneHead=0;swimlaneBody=0;fillColor=none;collapsible=0;dropTarget=0;points=[[0,0.5],[1,0.5]];portConstraint=eastwest;top=0;left=0;right=0;bottom=0;" vertex="1" parent="dPQcXwXLmtW2vjUBhtSD-28">
          <mxGeometry y="140" width="175" height="70" as="geometry" />
        </mxCell>
        <mxCell id="dPQcXwXLmtW2vjUBhtSD-39" value="" style="shape=partialRectangle;connectable=0;fillColor=none;top=0;left=0;bottom=0;right=0;editable=1;overflow=hidden;whiteSpace=wrap;html=1;" vertex="1" parent="dPQcXwXLmtW2vjUBhtSD-38">
          <mxGeometry width="30" height="70" as="geometry">
            <mxRectangle width="30" height="70" as="alternateBounds" />
          </mxGeometry>
        </mxCell>
        <mxCell id="dPQcXwXLmtW2vjUBhtSD-40" value="Quantity" style="shape=partialRectangle;connectable=0;fillColor=none;top=0;left=0;bottom=0;right=0;align=left;spacingLeft=6;overflow=hidden;whiteSpace=wrap;html=1;" vertex="1" parent="dPQcXwXLmtW2vjUBhtSD-38">
          <mxGeometry x="30" width="145" height="70" as="geometry">
            <mxRectangle width="145" height="70" as="alternateBounds" />
          </mxGeometry>
        </mxCell>
        <mxCell id="dPQcXwXLmtW2vjUBhtSD-43" value="" style="shape=tableRow;horizontal=0;startSize=0;swimlaneHead=0;swimlaneBody=0;fillColor=none;collapsible=0;dropTarget=0;points=[[0,0.5],[1,0.5]];portConstraint=eastwest;top=0;left=0;right=0;bottom=0;" vertex="1" parent="dPQcXwXLmtW2vjUBhtSD-28">
          <mxGeometry y="210" width="175" height="30" as="geometry" />
        </mxCell>
        <mxCell id="dPQcXwXLmtW2vjUBhtSD-44" value="" style="shape=partialRectangle;connectable=0;fillColor=none;top=0;left=0;bottom=0;right=0;editable=1;overflow=hidden;whiteSpace=wrap;html=1;" vertex="1" parent="dPQcXwXLmtW2vjUBhtSD-43">
          <mxGeometry width="30" height="30" as="geometry">
            <mxRectangle width="30" height="30" as="alternateBounds" />
          </mxGeometry>
        </mxCell>
        <mxCell id="dPQcXwXLmtW2vjUBhtSD-45" value="Subtotal&lt;div&gt;&lt;br&gt;&lt;/div&gt;" style="shape=partialRectangle;connectable=0;fillColor=none;top=0;left=0;bottom=0;right=0;align=left;spacingLeft=6;overflow=hidden;whiteSpace=wrap;html=1;" vertex="1" parent="dPQcXwXLmtW2vjUBhtSD-43">
          <mxGeometry x="30" width="145" height="30" as="geometry">
            <mxRectangle width="145" height="30" as="alternateBounds" />
          </mxGeometry>
        </mxCell>
        <mxCell id="dPQcXwXLmtW2vjUBhtSD-50" value="Menu_Items" style="shape=table;startSize=30;container=1;collapsible=1;childLayout=tableLayout;fixedRows=1;rowLines=0;fontStyle=1;align=center;resizeLast=1;html=1;fillColor=#dae8fc;strokeColor=#6c8ebf;" vertex="1" parent="1">
          <mxGeometry x="480" y="760" width="180" height="150" as="geometry" />
        </mxCell>
        <mxCell id="dPQcXwXLmtW2vjUBhtSD-51" value="" style="shape=tableRow;horizontal=0;startSize=0;swimlaneHead=0;swimlaneBody=0;fillColor=none;collapsible=0;dropTarget=0;points=[[0,0.5],[1,0.5]];portConstraint=eastwest;top=0;left=0;right=0;bottom=1;" vertex="1" parent="dPQcXwXLmtW2vjUBhtSD-50">
          <mxGeometry y="30" width="180" height="30" as="geometry" />
        </mxCell>
        <mxCell id="dPQcXwXLmtW2vjUBhtSD-52" value="PK" style="shape=partialRectangle;connectable=0;fillColor=none;top=0;left=0;bottom=0;right=0;fontStyle=1;overflow=hidden;whiteSpace=wrap;html=1;" vertex="1" parent="dPQcXwXLmtW2vjUBhtSD-51">
          <mxGeometry width="30" height="30" as="geometry">
            <mxRectangle width="30" height="30" as="alternateBounds" />
          </mxGeometry>
        </mxCell>
        <mxCell id="dPQcXwXLmtW2vjUBhtSD-53" value="Item_ID" style="shape=partialRectangle;connectable=0;fillColor=none;top=0;left=0;bottom=0;right=0;align=left;spacingLeft=6;fontStyle=5;overflow=hidden;whiteSpace=wrap;html=1;" vertex="1" parent="dPQcXwXLmtW2vjUBhtSD-51">
          <mxGeometry x="30" width="150" height="30" as="geometry">
            <mxRectangle width="150" height="30" as="alternateBounds" />
          </mxGeometry>
        </mxCell>
        <mxCell id="dPQcXwXLmtW2vjUBhtSD-54" value="" style="shape=tableRow;horizontal=0;startSize=0;swimlaneHead=0;swimlaneBody=0;fillColor=none;collapsible=0;dropTarget=0;points=[[0,0.5],[1,0.5]];portConstraint=eastwest;top=0;left=0;right=0;bottom=0;" vertex="1" parent="dPQcXwXLmtW2vjUBhtSD-50">
          <mxGeometry y="60" width="180" height="30" as="geometry" />
        </mxCell>
        <mxCell id="dPQcXwXLmtW2vjUBhtSD-55" value="" style="shape=partialRectangle;connectable=0;fillColor=none;top=0;left=0;bottom=0;right=0;editable=1;overflow=hidden;whiteSpace=wrap;html=1;" vertex="1" parent="dPQcXwXLmtW2vjUBhtSD-54">
          <mxGeometry width="30" height="30" as="geometry">
            <mxRectangle width="30" height="30" as="alternateBounds" />
          </mxGeometry>
        </mxCell>
        <mxCell id="dPQcXwXLmtW2vjUBhtSD-56" value="Item_Name" style="shape=partialRectangle;connectable=0;fillColor=none;top=0;left=0;bottom=0;right=0;align=left;spacingLeft=6;overflow=hidden;whiteSpace=wrap;html=1;" vertex="1" parent="dPQcXwXLmtW2vjUBhtSD-54">
          <mxGeometry x="30" width="150" height="30" as="geometry">
            <mxRectangle width="150" height="30" as="alternateBounds" />
          </mxGeometry>
        </mxCell>
        <mxCell id="dPQcXwXLmtW2vjUBhtSD-57" value="" style="shape=tableRow;horizontal=0;startSize=0;swimlaneHead=0;swimlaneBody=0;fillColor=none;collapsible=0;dropTarget=0;points=[[0,0.5],[1,0.5]];portConstraint=eastwest;top=0;left=0;right=0;bottom=0;" vertex="1" parent="dPQcXwXLmtW2vjUBhtSD-50">
          <mxGeometry y="90" width="180" height="30" as="geometry" />
        </mxCell>
        <mxCell id="dPQcXwXLmtW2vjUBhtSD-58" value="" style="shape=partialRectangle;connectable=0;fillColor=none;top=0;left=0;bottom=0;right=0;editable=1;overflow=hidden;whiteSpace=wrap;html=1;" vertex="1" parent="dPQcXwXLmtW2vjUBhtSD-57">
          <mxGeometry width="30" height="30" as="geometry">
            <mxRectangle width="30" height="30" as="alternateBounds" />
          </mxGeometry>
        </mxCell>
        <mxCell id="dPQcXwXLmtW2vjUBhtSD-59" value="Price" style="shape=partialRectangle;connectable=0;fillColor=none;top=0;left=0;bottom=0;right=0;align=left;spacingLeft=6;overflow=hidden;whiteSpace=wrap;html=1;" vertex="1" parent="dPQcXwXLmtW2vjUBhtSD-57">
          <mxGeometry x="30" width="150" height="30" as="geometry">
            <mxRectangle width="150" height="30" as="alternateBounds" />
          </mxGeometry>
        </mxCell>
        <mxCell id="dPQcXwXLmtW2vjUBhtSD-60" value="" style="shape=tableRow;horizontal=0;startSize=0;swimlaneHead=0;swimlaneBody=0;fillColor=none;collapsible=0;dropTarget=0;points=[[0,0.5],[1,0.5]];portConstraint=eastwest;top=0;left=0;right=0;bottom=0;" vertex="1" parent="dPQcXwXLmtW2vjUBhtSD-50">
          <mxGeometry y="120" width="180" height="30" as="geometry" />
        </mxCell>
        <mxCell id="dPQcXwXLmtW2vjUBhtSD-61" value="" style="shape=partialRectangle;connectable=0;fillColor=none;top=0;left=0;bottom=0;right=0;editable=1;overflow=hidden;whiteSpace=wrap;html=1;" vertex="1" parent="dPQcXwXLmtW2vjUBhtSD-60">
          <mxGeometry width="30" height="30" as="geometry">
            <mxRectangle width="30" height="30" as="alternateBounds" />
          </mxGeometry>
        </mxCell>
        <mxCell id="dPQcXwXLmtW2vjUBhtSD-62" value="Category" style="shape=partialRectangle;connectable=0;fillColor=none;top=0;left=0;bottom=0;right=0;align=left;spacingLeft=6;overflow=hidden;whiteSpace=wrap;html=1;" vertex="1" parent="dPQcXwXLmtW2vjUBhtSD-60">
          <mxGeometry x="30" width="150" height="30" as="geometry">
            <mxRectangle width="150" height="30" as="alternateBounds" />
          </mxGeometry>
        </mxCell>
        <mxCell id="dPQcXwXLmtW2vjUBhtSD-70" value="" style="edgeStyle=entityRelationEdgeStyle;fontSize=12;html=1;endArrow=ERzeroToMany;startArrow=ERzeroToOne;rounded=0;" edge="1" parent="1">
          <mxGeometry width="100" height="100" relative="1" as="geometry">
            <mxPoint x="300" y="830" as="sourcePoint" />
            <mxPoint x="480" y="570" as="targetPoint" />
          </mxGeometry>
        </mxCell>
        <mxCell id="dPQcXwXLmtW2vjUBhtSD-74" value="N-1" style="edgeLabel;html=1;align=center;verticalAlign=middle;resizable=0;points=[];" vertex="1" connectable="0" parent="dPQcXwXLmtW2vjUBhtSD-70">
          <mxGeometry x="-0.0219" y="-1" relative="1" as="geometry">
            <mxPoint as="offset" />
          </mxGeometry>
        </mxCell>
        <mxCell id="dPQcXwXLmtW2vjUBhtSD-78" value="" style="edgeStyle=entityRelationEdgeStyle;fontSize=12;html=1;endArrow=ERzeroToMany;startArrow=ERzeroToOne;rounded=0;" edge="1" parent="1">
          <mxGeometry width="100" height="100" relative="1" as="geometry">
            <mxPoint x="297.5" y="570" as="sourcePoint" />
            <mxPoint x="480" y="590" as="targetPoint" />
          </mxGeometry>
        </mxCell>
        <mxCell id="dPQcXwXLmtW2vjUBhtSD-79" value="N-1" style="edgeLabel;html=1;align=center;verticalAlign=middle;resizable=0;points=[];" vertex="1" connectable="0" parent="dPQcXwXLmtW2vjUBhtSD-78">
          <mxGeometry x="0.0319" y="-3" relative="1" as="geometry">
            <mxPoint as="offset" />
          </mxGeometry>
        </mxCell>
        <mxCell id="dPQcXwXLmtW2vjUBhtSD-80" value="" style="edgeStyle=entityRelationEdgeStyle;fontSize=12;html=1;endArrow=ERmany;startArrow=ERmany;rounded=0;" edge="1" parent="1">
          <mxGeometry width="100" height="100" relative="1" as="geometry">
            <mxPoint x="300" y="880" as="sourcePoint" />
            <mxPoint x="470" y="810" as="targetPoint" />
          </mxGeometry>
        </mxCell>
        <mxCell id="dPQcXwXLmtW2vjUBhtSD-81" value="M-N&lt;div&gt;&lt;br&gt;&lt;/div&gt;" style="edgeLabel;html=1;align=center;verticalAlign=middle;resizable=0;points=[];" vertex="1" connectable="0" parent="dPQcXwXLmtW2vjUBhtSD-80">
          <mxGeometry x="-0.0139" y="-1" relative="1" as="geometry">
            <mxPoint y="4" as="offset" />
          </mxGeometry>
        </mxCell>
      </root>
    </mxGraphModel>
  </diagram>
</mxfile>
